<mxfile host="app.diagrams.net" agent="Mozilla/5.0 (Macintosh; Intel Mac OS X 10_15_7) AppleWebKit/537.36 (KHTML, like Gecko) Chrome/136.0.0.0 Safari/537.36" version="27.0.5">
  <diagram name="Page-1" id="kPM-uQXOeN8c8hdtPSXf">
    <mxGraphModel dx="1737" dy="1163" grid="1" gridSize="10" guides="1" tooltips="1" connect="1" arrows="1" fold="1" page="1" pageScale="1" pageWidth="850" pageHeight="1100" math="0" shadow="0">
      <root>
        <mxCell id="0" />
        <mxCell id="1" parent="0" />
        <mxCell id="4JLXjGs61Wf1CLOQnbgo-1" style="edgeStyle=orthogonalEdgeStyle;rounded=0;orthogonalLoop=1;jettySize=auto;html=1;exitX=1;exitY=0.5;exitDx=0;exitDy=0;entryX=0;entryY=0.5;entryDx=0;entryDy=0;" edge="1" parent="1" source="4JLXjGs61Wf1CLOQnbgo-2" target="4JLXjGs61Wf1CLOQnbgo-12">
          <mxGeometry relative="1" as="geometry" />
        </mxCell>
        <mxCell id="4JLXjGs61Wf1CLOQnbgo-2" value="" style="rounded=1;whiteSpace=wrap;html=1;fillColor=none;" vertex="1" parent="1">
          <mxGeometry x="50" y="120" width="190" height="490" as="geometry" />
        </mxCell>
        <mxCell id="4JLXjGs61Wf1CLOQnbgo-3" value="Knowledge Requirements" style="text;html=1;align=center;verticalAlign=middle;whiteSpace=wrap;rounded=0;fontStyle=1" vertex="1" parent="1">
          <mxGeometry x="60" y="130" width="170" height="30" as="geometry" />
        </mxCell>
        <mxCell id="4JLXjGs61Wf1CLOQnbgo-4" value="&lt;b&gt;React Native / Expo&lt;/b&gt; (for developing the mobile application interface for both IOS and Android)" style="text;html=1;align=left;verticalAlign=middle;whiteSpace=wrap;rounded=0;" vertex="1" parent="1">
          <mxGeometry x="60" y="190" width="170" height="30" as="geometry" />
        </mxCell>
        <mxCell id="4JLXjGs61Wf1CLOQnbgo-5" value="&lt;b&gt;React &lt;/b&gt;(for developing the admin web application interface)" style="text;html=1;align=left;verticalAlign=middle;whiteSpace=wrap;rounded=0;" vertex="1" parent="1">
          <mxGeometry x="60" y="260" width="170" height="30" as="geometry" />
        </mxCell>
        <mxCell id="4JLXjGs61Wf1CLOQnbgo-6" value="&lt;b&gt;Typescript &lt;/b&gt;(the primary language)" style="text;html=1;align=left;verticalAlign=middle;whiteSpace=wrap;rounded=0;" vertex="1" parent="1">
          <mxGeometry x="60" y="310" width="170" height="30" as="geometry" />
        </mxCell>
        <mxCell id="4JLXjGs61Wf1CLOQnbgo-7" value="&lt;b&gt;Supabase API &amp;amp; PostgreSQL&lt;/b&gt;&amp;nbsp;(for making backend calls and database storage)" style="text;html=1;align=left;verticalAlign=middle;whiteSpace=wrap;rounded=0;" vertex="1" parent="1">
          <mxGeometry x="60" y="370" width="170" height="30" as="geometry" />
        </mxCell>
        <mxCell id="4JLXjGs61Wf1CLOQnbgo-8" value="Software Requirements" style="text;html=1;align=center;verticalAlign=middle;whiteSpace=wrap;rounded=0;fontStyle=1" vertex="1" parent="1">
          <mxGeometry x="60" y="440" width="170" height="30" as="geometry" />
        </mxCell>
        <mxCell id="4JLXjGs61Wf1CLOQnbgo-9" value="Visual Studio Code / Webstorm" style="text;html=1;align=left;verticalAlign=middle;whiteSpace=wrap;rounded=0;" vertex="1" parent="1">
          <mxGeometry x="60" y="470" width="170" height="30" as="geometry" />
        </mxCell>
        <mxCell id="4JLXjGs61Wf1CLOQnbgo-10" value="Expo CLI" style="text;html=1;align=left;verticalAlign=middle;whiteSpace=wrap;rounded=0;" vertex="1" parent="1">
          <mxGeometry x="60" y="500" width="170" height="30" as="geometry" />
        </mxCell>
        <mxCell id="4JLXjGs61Wf1CLOQnbgo-11" style="edgeStyle=orthogonalEdgeStyle;rounded=0;orthogonalLoop=1;jettySize=auto;html=1;exitX=1;exitY=0.5;exitDx=0;exitDy=0;entryX=0;entryY=0.5;entryDx=0;entryDy=0;" edge="1" parent="1" source="4JLXjGs61Wf1CLOQnbgo-12" target="4JLXjGs61Wf1CLOQnbgo-24">
          <mxGeometry relative="1" as="geometry" />
        </mxCell>
        <mxCell id="4JLXjGs61Wf1CLOQnbgo-12" value="" style="rounded=1;whiteSpace=wrap;html=1;fillColor=none;" vertex="1" parent="1">
          <mxGeometry x="330" y="120" width="190" height="490" as="geometry" />
        </mxCell>
        <mxCell id="4JLXjGs61Wf1CLOQnbgo-13" value="System Planning" style="text;html=1;align=center;verticalAlign=middle;whiteSpace=wrap;rounded=0;fontStyle=1" vertex="1" parent="1">
          <mxGeometry x="340" y="130" width="170" height="30" as="geometry" />
        </mxCell>
        <mxCell id="4JLXjGs61Wf1CLOQnbgo-14" value="Feasibility Study&lt;div&gt;Data Gathering&lt;/div&gt;&lt;div&gt;&lt;span style=&quot;white-space: pre;&quot;&gt;&#x9;&lt;/span&gt;a. Conduct Interview&lt;br&gt;&lt;/div&gt;&lt;div&gt;&lt;span style=&quot;white-space: pre;&quot;&gt;&#x9;&lt;/span&gt;b. Pre-test Survery&lt;br&gt;&lt;/div&gt;" style="text;html=1;align=left;verticalAlign=middle;whiteSpace=wrap;rounded=0;" vertex="1" parent="1">
          <mxGeometry x="340" y="180" width="170" height="30" as="geometry" />
        </mxCell>
        <mxCell id="4JLXjGs61Wf1CLOQnbgo-15" value="Requirements Analysis based on data gathered&lt;div&gt;Complete project plan&lt;/div&gt;" style="text;html=1;align=left;verticalAlign=middle;whiteSpace=wrap;rounded=0;" vertex="1" parent="1">
          <mxGeometry x="340" y="270" width="170" height="30" as="geometry" />
        </mxCell>
        <mxCell id="4JLXjGs61Wf1CLOQnbgo-16" value="System Implementation" style="text;html=1;align=center;verticalAlign=middle;whiteSpace=wrap;rounded=0;fontStyle=1" vertex="1" parent="1">
          <mxGeometry x="340" y="420" width="170" height="30" as="geometry" />
        </mxCell>
        <mxCell id="4JLXjGs61Wf1CLOQnbgo-17" value="System Analysis" style="text;html=1;align=center;verticalAlign=middle;whiteSpace=wrap;rounded=0;fontStyle=1" vertex="1" parent="1">
          <mxGeometry x="340" y="230" width="170" height="30" as="geometry" />
        </mxCell>
        <mxCell id="4JLXjGs61Wf1CLOQnbgo-18" value="&lt;div&gt;Design mobile and web user interfaces&lt;/div&gt;&lt;div&gt;Design required modules and functions&lt;/div&gt;&lt;div&gt;Simulate pageflows&lt;/div&gt;" style="text;html=1;align=left;verticalAlign=middle;whiteSpace=wrap;rounded=0;" vertex="1" parent="1">
          <mxGeometry x="340" y="360" width="170" height="30" as="geometry" />
        </mxCell>
        <mxCell id="4JLXjGs61Wf1CLOQnbgo-19" value="System Design" style="text;html=1;align=center;verticalAlign=middle;whiteSpace=wrap;rounded=0;fontStyle=1" vertex="1" parent="1">
          <mxGeometry x="340" y="310" width="170" height="30" as="geometry" />
        </mxCell>
        <mxCell id="4JLXjGs61Wf1CLOQnbgo-20" value="Testing&amp;nbsp;&lt;div&gt;Data Gathering&lt;/div&gt;&lt;div&gt;&lt;span style=&quot;white-space: pre;&quot;&gt;&#x9;&lt;/span&gt;a. Post-Test Survey&lt;br&gt;&lt;/div&gt;" style="text;html=1;align=left;verticalAlign=middle;whiteSpace=wrap;rounded=0;" vertex="1" parent="1">
          <mxGeometry x="340" y="460" width="170" height="30" as="geometry" />
        </mxCell>
        <mxCell id="4JLXjGs61Wf1CLOQnbgo-21" value="System Maintenance, Operation, and Support" style="text;html=1;align=center;verticalAlign=middle;whiteSpace=wrap;rounded=0;fontStyle=1" vertex="1" parent="1">
          <mxGeometry x="340" y="510" width="170" height="30" as="geometry" />
        </mxCell>
        <mxCell id="4JLXjGs61Wf1CLOQnbgo-22" value="Data Gathering&lt;div&gt;Modification&lt;/div&gt;&lt;div&gt;Change&lt;/div&gt;" style="text;html=1;align=left;verticalAlign=middle;whiteSpace=wrap;rounded=0;" vertex="1" parent="1">
          <mxGeometry x="340" y="550" width="170" height="30" as="geometry" />
        </mxCell>
        <mxCell id="4JLXjGs61Wf1CLOQnbgo-23" style="edgeStyle=orthogonalEdgeStyle;rounded=0;orthogonalLoop=1;jettySize=auto;html=1;entryX=1;entryY=0.5;entryDx=0;entryDy=0;" edge="1" parent="1" source="4JLXjGs61Wf1CLOQnbgo-24" target="4JLXjGs61Wf1CLOQnbgo-30">
          <mxGeometry relative="1" as="geometry">
            <Array as="points">
              <mxPoint x="710" y="690" />
            </Array>
          </mxGeometry>
        </mxCell>
        <mxCell id="4JLXjGs61Wf1CLOQnbgo-24" value="" style="rounded=1;whiteSpace=wrap;html=1;fillColor=none;" vertex="1" parent="1">
          <mxGeometry x="610" y="120" width="190" height="490" as="geometry" />
        </mxCell>
        <mxCell id="4JLXjGs61Wf1CLOQnbgo-25" value="Atletik: A Sports Promotion Mobile Application For Taytay LGU&amp;nbsp;" style="text;html=1;align=center;verticalAlign=middle;whiteSpace=wrap;rounded=0;fontStyle=1" vertex="1" parent="1">
          <mxGeometry x="620" y="350" width="170" height="30" as="geometry" />
        </mxCell>
        <mxCell id="4JLXjGs61Wf1CLOQnbgo-26" value="&lt;font style=&quot;font-size: 14px;&quot;&gt;&lt;b&gt;INPUT&lt;/b&gt;&lt;/font&gt;" style="text;html=1;align=center;verticalAlign=middle;whiteSpace=wrap;rounded=0;" vertex="1" parent="1">
          <mxGeometry x="110" y="90" width="60" height="30" as="geometry" />
        </mxCell>
        <mxCell id="4JLXjGs61Wf1CLOQnbgo-27" value="&lt;font style=&quot;font-size: 14px;&quot;&gt;&lt;b&gt;PROCESS&lt;/b&gt;&lt;/font&gt;" style="text;html=1;align=center;verticalAlign=middle;whiteSpace=wrap;rounded=0;" vertex="1" parent="1">
          <mxGeometry x="395" y="90" width="60" height="30" as="geometry" />
        </mxCell>
        <mxCell id="4JLXjGs61Wf1CLOQnbgo-28" value="&lt;font style=&quot;font-size: 14px;&quot;&gt;&lt;b&gt;OUTPUT&lt;/b&gt;&lt;/font&gt;" style="text;html=1;align=center;verticalAlign=middle;whiteSpace=wrap;rounded=0;" vertex="1" parent="1">
          <mxGeometry x="675" y="90" width="60" height="30" as="geometry" />
        </mxCell>
        <mxCell id="4JLXjGs61Wf1CLOQnbgo-29" style="edgeStyle=orthogonalEdgeStyle;rounded=0;orthogonalLoop=1;jettySize=auto;html=1;exitX=0;exitY=0.5;exitDx=0;exitDy=0;entryX=0.5;entryY=1;entryDx=0;entryDy=0;" edge="1" parent="1" source="4JLXjGs61Wf1CLOQnbgo-30" target="4JLXjGs61Wf1CLOQnbgo-2">
          <mxGeometry relative="1" as="geometry" />
        </mxCell>
        <mxCell id="4JLXjGs61Wf1CLOQnbgo-30" value="&lt;font style=&quot;font-size: 16px;&quot;&gt;&lt;b&gt;Feedback&lt;/b&gt;&lt;/font&gt;" style="rounded=1;whiteSpace=wrap;html=1;fillColor=none;" vertex="1" parent="1">
          <mxGeometry x="276.25" y="655" width="297.5" height="70" as="geometry" />
        </mxCell>
        <mxCell id="4JLXjGs61Wf1CLOQnbgo-32" value="npm Package Manager" style="text;html=1;align=left;verticalAlign=middle;whiteSpace=wrap;rounded=0;" vertex="1" parent="1">
          <mxGeometry x="60" y="529" width="170" height="30" as="geometry" />
        </mxCell>
        <mxCell id="4JLXjGs61Wf1CLOQnbgo-33" value="Figma" style="text;html=1;align=left;verticalAlign=middle;whiteSpace=wrap;rounded=0;" vertex="1" parent="1">
          <mxGeometry x="60" y="559" width="170" height="30" as="geometry" />
        </mxCell>
      </root>
    </mxGraphModel>
  </diagram>
</mxfile>
